# xmcd
#
# Track frame offsets: 
#        150
#        20658
#        33949
#        50572
#        63873
#        87038
#        98565
#        116576
#        125942
#        136148
#        150831
#        170220
#        183523
#
# Disc length: 2633 seconds
#
# Revision: 5
# Processed by: cddbd v1.4PL0 Copyright (c) Steve Scherf et al.
# Submitted via: ExactAudioCopy v0.90b4
#
DISCID=a70a470d
DTITLE=Damien Jurado - Ghost of David
DYEAR=2000
DGENRE=
TTITLE0=Medication
TTITLE1=Desert
TTITLE2=Johnny Go Riding
TTITLE3=Great Today
TTITLE4=Tonight I Will Retire
TTITLE5=Ghost of David
TTITLE6=Parking Lot
TTITLE7=Rearview
TTITLE8=Paxil
TTITLE9=Walk With Me
TTITLE10=December
TTITLE11=Rosewood Casket
TTITLE12=Ghost in the Snow
EXTD=Sub Pop (SPCD507)
EXTT0=
EXTT1=
EXTT2=
EXTT3=
EXTT4=
EXTT5=
EXTT6=
EXTT7=
EXTT8=
EXTT9=
EXTT10=
EXTT11=
EXTT12=
PLAYORDER=
